<?xml version="1.0" encoding="UTF-8"?>
<svg id="Capa_1" data-name="Capa 1" xmlns="http://www.w3.org/2000/svg" viewBox="0 0 1080 502.13">
  <defs>
    <style>
      .cls-1 {
        fill: #ffffff;
      }
    </style>
  </defs>
  <path class="cls-1" d="M502.52,11.59h232.78c144.91,0,253.6,65.94,253.6,242.01s-113.76,239.11-260.85,239.11h-225.53V11.59ZM836.01,254.32v-2.89c0-104.34-31.88-141.3-111.59-141.3h-58.15c-8.41,0-15.22,6.82-15.22,15.22v254.31c0,8.41,6.82,15.22,15.22,15.22h55.98c81.15,0,113.76-37.68,113.76-140.57Z"/>
  <path class="cls-1" d="M959.95,357.21h102.42c9.74,0,17.63,7.89,17.63,17.63v98.79c0,9.74-7.89,17.63-17.63,17.63h-102.42c-9.74,0-17.63-7.89-17.63-17.63v-98.79c0-9.74,7.89-17.63,17.63-17.63Z"/>
  <path class="cls-1" d="M0,260.13C0,96.37,94.92,0,249.26,0c131.87,0,203.61,71.01,218.1,181.15h-137.67c-6.52-45.65-34.78-68.84-80.43-68.84-65.21,0-99.27,50.72-99.27,147.09v9.42c0,87.68,38.4,134.05,103.61,134.05,46.37,0,82.6-24.63,86.23-70.29h-78.98v-91.3h210.85v249.98h-129.7v-57.96c-22.46,40.57-65.21,68.83-131.15,68.83C82.6,502.13,0,405.05,0,260.13Z"/>
</svg>