<?xml version="1.0" encoding="UTF-8"?>
<svg id="Capa_1" data-name="Capa 1" xmlns="http://www.w3.org/2000/svg" viewBox="0 0 3199.52 502.13">
  <defs>
    <style>
      .cls-1 {
        fill: #1e1e1e;
      }
    </style>
  </defs>
  <path class="cls-1" d="M0,309.59C0,179.3,75.52,102.62,198.32,102.62c104.92,0,162,56.49,173.53,144.13h-109.54c-5.19-36.32-27.67-54.77-63.99-54.77-51.89,0-78.98,40.35-78.98,117.03v7.5c0,69.76,30.55,106.65,82.44,106.65,36.9,0,65.72-19.6,68.6-55.93h-62.84v-72.64h167.76v198.89h-103.19v-46.11c-17.87,32.28-51.89,54.76-104.35,54.76C65.72,502.13,0,424.89,0,309.59Z"/>
  <path class="cls-1" d="M399.82,110.7h166.03c128.56,0,160.84,43.24,160.84,102.04s-38.63,90.51-96.85,101.47c67.45,10.37,91.09,54.76,102.61,133.17,2.31,15.57,3.46,36.31,4.61,46.11h-118.76c0-2.3-.58-13.25-1.73-23.63-6.34-67.46-24.21-113.57-75.52-114.72h-25.37v138.35h-115.88V110.7ZM539.33,295.18c48.42,0,75.52-24.8,75.52-61.11,0-34.01-18.45-52.46-66.88-52.46h-20.11c-6.73,0-12.18,5.45-12.18,12.18v89.22c0,6.73,5.45,12.18,12.18,12.18h11.46Z"/>
  <path class="cls-1" d="M855.81,110.7h129.14l130.29,382.79h-124.52l-28.25-88.21h-116.45l-29.4,88.21h-95.12l134.32-382.79ZM944.59,336.1l-26.21-83.48c-3.59-11.43-19.67-11.67-23.61-.36l-29.16,83.83h78.98Z"/>
  <path class="cls-1" d="M1105.99,111.85h129.71l114.55,177.81c6.82,10.59,23.23,5.76,23.23-6.84V111.85h92.24v382.79h-112.42l-131.8-207.26c-6.78-10.66-23.27-5.86-23.27,6.77v200.48h-92.24V111.85Z"/>
  <path class="cls-1" d="M1946.49,111.85h129.14l130.29,382.79h-124.52l-28.25-88.21h-116.45l-29.4,88.21h-95.12l134.32-382.79ZM2035.28,337.25l-26.21-83.48c-3.59-11.43-19.67-11.67-23.61-.36l-29.16,83.83h78.98Z"/>
  <path class="cls-1" d="M1490.25,111.85h185.21c115.3,0,201.77,52.46,201.77,192.55s-90.51,190.24-207.54,190.24h-179.44V111.85ZM1755.58,304.97v-2.3c0-83.02-25.37-112.42-88.78-112.42h-46.27c-6.69,0-12.11,5.42-12.11,12.11v202.34c0,6.69,5.42,12.11,12.11,12.11h44.54c64.57,0,90.51-29.98,90.51-111.84Z"/>
  <path class="cls-1" d="M2580.94,111.85h299.78v81.86h-171.64c-6.77,0-12.26,5.49-12.26,12.26v41.2c0,6.77,5.49,12.26,12.26,12.26h97.27v83h-97.27c-6.77,0-12.26,5.49-12.26,12.26v44.08c0,6.77,5.49,12.26,12.26,12.26h176.25v83.59h-304.39V111.85ZM2734.87,0h121.64v11.53l-125.68,77.25h-28.25L2734.87,0Z"/>
  <path class="cls-1" d="M2856.51,368.96h96.28c7.49,37.46,30.55,57.64,80.71,57.64,29.98,0,47.85-13.83,47.85-35.75s-36.32-29.98-81.28-40.35c-61.11-14.41-135.48-37.48-135.48-115.88s68.03-130.86,164.3-130.86c104.35,0,158.54,53.04,164.3,131.44h-95.12c-6.34-37.48-24.21-55.93-69.76-55.93-28.83,0-46.12,14.41-46.12,35.75,0,26.52,40.93,32.86,87.63,43.24,60.53,13.26,129.71,34.59,129.71,114.14s-62.84,129.72-164.88,129.72c-111.84,0-170.64-61.11-178.14-133.17Z"/>
  <path class="cls-1" d="M2196.68,111.85h129.71l114.55,177.81c6.82,10.59,23.23,5.76,23.23-6.84V111.85h92.24v382.79h-112.42l-131.8-207.26c-6.78-10.66-23.27-5.86-23.27,6.77v200.48h-92.24V111.85Z"/>
</svg>