<?xml version="1.0" encoding="UTF-8"?>
<svg id="Capa_1" data-name="Capa 1" xmlns="http://www.w3.org/2000/svg" viewBox="0 0 1080 425.23">
  <defs>
    <style>
      .cls-1 {
        fill: #1e1e1e;
      }
    </style>
  </defs>
  <path class="cls-1" d="M566.41,4.13h66.43l58.66,91.06c3.49,5.42,11.9,2.95,11.9-3.5V4.13h47.24v196.04h-57.57l-67.5-106.14c-3.47-5.46-11.92-3-11.92,3.47v102.67h-47.24V4.13Z"/>
  <path class="cls-1" d="M566.41,225.35h66.43l58.66,91.06c3.49,5.42,11.9,2.95,11.9-3.5v-87.56h47.24v196.04h-57.57l-67.5-106.14c-3.47-5.46-11.92-3-11.92,3.47v102.67h-47.24v-196.04Z"/>
  <path class="cls-1" d="M204.63,225.35h94.85c59.05,0,103.33,26.87,103.33,98.61s-46.35,97.43-106.29,97.43h-91.9v-196.04ZM340.52,324.25v-1.18c0-42.51-12.99-57.57-45.47-57.57h-23.69c-3.43,0-6.2,2.78-6.2,6.2v103.62c0,3.43,2.78,6.2,6.2,6.2h22.81c33.07,0,46.35-15.35,46.35-57.28Z"/>
  <path class="cls-1" d="M763.21,225.35h153.52v41.92h-87.9c-3.47,0-6.28,2.81-6.28,6.28v21.1c0,3.47,2.81,6.28,6.28,6.28h49.81v42.51h-49.81c-3.47,0-6.28,2.81-6.28,6.28v22.57c0,3.47,2.81,6.28,6.28,6.28h90.26v42.81h-155.89v-196.04ZM842.03,168.07h62.3v5.91l-64.36,39.56h-14.47l16.53-45.47Z"/>
  <path class="cls-1" d="M204.76,4.13h85.03c65.84,0,82.37,22.14,82.37,52.26s-19.78,46.35-49.6,51.96c34.54,5.31,46.65,28.04,52.55,68.2,1.18,7.97,1.77,18.6,2.36,23.62h-60.82c0-1.18-.29-6.79-.89-12.1-3.25-34.55-12.4-58.16-38.68-58.75h-12.99v70.85h-59.34V4.13ZM276.21,98.61c24.8,0,38.68-12.7,38.68-31.3,0-17.42-9.45-26.87-34.25-26.87h-10.3c-3.44,0-6.24,2.79-6.24,6.24v45.69c0,3.44,2.79,6.24,6.24,6.24h5.87Z"/>
  <path class="cls-1" d="M0,105.99C0,39.27,38.68,0,101.56,0c53.73,0,82.96,28.93,88.87,73.81h-56.1c-2.66-18.6-14.17-28.05-32.77-28.05-26.57,0-40.45,20.67-40.45,59.93v3.84c0,35.73,15.65,54.62,42.22,54.62,18.9,0,33.66-10.04,35.13-28.64h-32.18v-37.2h85.92v101.86h-52.85v-23.62c-9.15,16.53-26.57,28.04-53.44,28.04C33.66,204.6,0,165.04,0,105.99Z"/>
  <path class="cls-1" d="M438.29,4.13h66.13l66.73,196.04h-63.77l-14.47-45.17h-59.64l-15.06,45.17h-48.72L438.29,4.13ZM483.75,119.57l-13.43-42.75c-1.84-5.85-10.08-5.98-12.09-.18l-14.93,42.93h40.45Z"/>
  <path class="cls-1" d="M438.29,225.35h66.13l66.73,196.04h-63.77l-14.47-45.17h-59.64l-15.06,45.17h-48.72l68.79-196.04ZM483.75,340.79l-13.43-42.75c-1.84-5.85-10.08-5.98-12.09-.18l-14.93,42.93h40.45Z"/>
  <path class="cls-1" d="M904.33,357.03h49.31c3.84,19.19,15.65,29.52,41.33,29.52,15.35,0,24.5-7.08,24.5-18.31s-18.6-15.35-41.63-20.66c-31.3-7.38-69.38-19.19-69.38-59.35s34.84-67.02,84.14-67.02c53.44,0,81.19,27.16,84.14,67.32h-48.72c-3.25-19.19-12.4-28.64-35.72-28.64-14.76,0-23.62,7.38-23.62,18.31,0,13.58,20.96,16.83,44.88,22.14,31,6.79,66.43,17.71,66.43,58.46s-32.18,66.43-84.44,66.43c-57.28,0-87.39-31.3-91.23-68.2Z"/>
</svg>