<?xml version="1.0" encoding="UTF-8"?>
<svg id="Capa_1" data-name="Capa 1" xmlns="http://www.w3.org/2000/svg" viewBox="0 0 1075.01 431.64">
  <defs>
    <style>
      .cls-1 {
        fill: #fff;
      }

      .cls-2 {
        fill: #2c77da;
        stroke: #1e1e1e;
        stroke-miterlimit: 10;
        stroke-width: .5px;
      }
    </style>
  </defs>
  <rect class="cls-2" x="14.89" y="60.54" width="1045.23" height="310.55" transform="translate(-21.62 64.58) rotate(-6.74)"/>
  <path class="cls-1" d="M64.27,267.24c-26.01,3.07-48.42-14.43-52.61-47.97l-.05-.44c-3.97-33.56,13.81-57.16,40.04-60.26,13.45-1.59,24.95,3.1,33.62,12.15l-1.62-13.69,26.89-3.18,17.04,144.19-26.89,3.18-6.32-53.44c-6.13,10.57-16.66,17.87-30.11,19.45ZM91.21,209.65l-.26-2.21c-2.19-18.55-13.03-28.91-29.12-27.01-14.99,1.77-24.32,13.62-21.87,34.38l.18,1.54c2.43,20.53,13.77,29.49,29.2,27.67,15.65-1.85,24.03-16.05,21.87-34.38Z"/>
  <path class="cls-1" d="M124.76,215.54l-7.39-62.49,27.33-3.23,7.2,60.94c1.67,14.13,9,21.33,21.79,19.82,14.33-1.69,19.06-14.57,16.95-32.45l-6.26-52.99,26.67-3.15,12.32,104.22-26.89,3.18-1.75-14.8c-4.45,11.5-13.23,18.58-26.67,20.17-23.59,2.79-40.15-12.5-43.3-39.21Z"/>
  <path class="cls-1" d="M214.04,99.08l28.22-3.33,3.16,26.72-28.22,3.33-3.16-26.72ZM219.22,141.01l27.33-3.23,12.32,104.22-27.33,3.23-12.32-104.22Z"/>
  <path class="cls-1" d="M254.55,190.34c-3.84-32.46,15.35-57.34,45.55-60.91,31.52-3.73,52.74,15.04,56.63,47.94l1.07,9.05-75.61,8.94c3.59,15.25,14.28,22.49,29.27,20.72,15.43-1.82,21.38-10.14,23.64-19.36l24.58,5.6c-5.29,17.64-18.82,31.78-45.93,34.98-32.62,3.86-55.36-14.5-59.19-46.97ZM301.95,150.71c-13.23,1.56-21.91,11.32-22.41,25.93l48.5-5.73c-2.71-15.35-11.75-21.89-26.08-20.2Z"/>
  <path class="cls-1" d="M353.46,125.15l27.11-3.2,1.98,16.78c4.1-12.57,13.41-20.84,28.18-22.58,22.7-2.68,37.95,10.96,41.32,39.45l7.41,62.71-27.12,3.2-7.2-60.94c-1.75-14.79-8.36-21.63-20.93-20.14-13.23,1.56-20.13,13.13-17.81,32.78l6.26,52.99-26.89,3.18-12.32-104.22Z"/>
  <path class="cls-1" d="M486.81,109.38l27.11-3.2,1.98,16.78c3.85-12.77,12.97-20.79,27.96-22.56,11.68-1.38,24.02,2.76,31.21,18.25,3.34-13.38,13.31-23.51,31.39-25.65,20.28-2.4,34.7,11.79,37.86,38.51l7.57,64.03-27.11,3.2-7.39-62.49c-1.64-13.91-8.63-20.03-19.65-18.73-12.12,1.43-17.53,10.58-15.7,26.04l7.02,59.4-27.33,3.23-7.52-63.59c-1.51-12.81-8.05-18.98-19.08-17.67-10.36,1.22-18.04,9.97-16.14,26.09l7.02,59.4-26.89,3.18-12.32-104.22Z"/>
  <path class="cls-1" d="M651.05,167.67c-2.77-23.41,14.22-31.01,36.79-38.6,18.07-5.94,28.08-8.24,28.56-13.68l-.16-1.32c-.76-6.4-6.95-11.49-21.27-9.8-13.89,1.64-20.77,9.62-19.65,19.11l.16,1.32-26.89,3.18c-1.94-23.95,14.78-41.38,44.32-44.87s46.43,7.05,49.74,35.09l5.61,47.47,2.17,18.33-25.79,3.05-1.67-14.13c-5.36,11.38-16.75,19-32.19,20.82-22.26,2.63-37.58-7.87-39.72-25.98ZM719.79,144.09l-1.07-9.05c-5.76,4.26-15.47,7.2-23.61,10.18-10.02,4.1-18.01,8.4-16.88,17.89.84,7.07,6.95,11.5,16.43,10.37,13.45-1.59,26.55-9.86,25.14-29.39Z"/>
  <path class="cls-1" d="M745.16,78.85l27.11-3.2,1.98,16.78c4.1-12.57,13.41-20.84,28.18-22.58,22.7-2.68,37.95,10.96,41.32,39.45l7.41,62.71-27.11,3.2-7.2-60.94c-1.75-14.79-8.36-21.63-20.93-20.14-13.23,1.56-20.13,13.13-17.81,32.78l6.26,52.99-26.89,3.18-12.32-104.22Z"/>
  <path class="cls-1" d="M845.94,120.23c-3.91-33.12,13.81-57.16,40.04-60.26,13.45-1.59,25.2,3.29,33.6,11.93l-6.84-57.85,26.45-3.13,17.56,148.61-26.45,3.13-1.59-13.47c-6.13,10.57-16.44,17.84-30.11,19.45-26.01,3.07-48.67-14.62-52.66-48.41ZM925.52,110.82l-.21-1.77c-2.22-18.77-13.11-29.57-29.2-27.67-14.99,1.77-24.27,14.06-21.81,34.82l.18,1.54c2.43,20.53,13.77,29.49,29.2,27.67,15.65-1.85,24.06-15.83,21.84-34.6Z"/>
  <path class="cls-1" d="M956.35,131.58c-2.77-23.41,14.22-31.01,36.79-38.6,18.07-5.94,28.08-8.24,28.56-13.68l-.16-1.32c-.76-6.4-6.95-11.49-21.27-9.8-13.89,1.64-20.77,9.62-19.65,19.11l.16,1.32-26.89,3.18c-1.94-23.95,14.78-41.38,44.32-44.87,28.22-3.33,46.43,7.05,49.74,35.09l5.61,47.47,2.17,18.33-25.79,3.05-1.67-14.13c-5.36,11.38-16.75,19-32.18,20.82-22.26,2.63-37.58-7.87-39.72-25.98ZM1025.09,108.01l-1.07-9.05c-5.76,4.26-15.47,7.2-23.61,10.18-10.02,4.1-18.01,8.4-16.88,17.89.84,7.07,6.95,11.5,16.43,10.37,13.45-1.59,26.55-9.86,25.14-29.39Z"/>
  <g>
    <path class="cls-1" d="M30.65,379.91c-3.84-32.46,15.35-57.34,45.55-60.91,31.52-3.73,52.74,15.04,56.63,47.94l1.07,9.05-75.61,8.94c3.59,15.25,14.28,22.49,29.27,20.72,15.43-1.82,21.38-10.14,23.64-19.36l24.58,5.6c-5.29,17.64-18.82,31.78-45.93,34.98-32.62,3.86-55.36-14.5-59.19-46.97ZM78.04,340.28c-13.23,1.56-21.91,11.32-22.41,25.93l48.5-5.73c-2.71-15.35-11.75-21.89-26.08-20.2Z"/>
    <path class="cls-1" d="M129.55,314.71l27.11-3.2,1.98,16.78c4.1-12.57,13.41-20.84,28.18-22.58,22.7-2.68,37.95,10.96,41.32,39.45l7.41,62.71-27.12,3.2-7.2-60.94c-1.75-14.79-8.36-21.63-20.93-20.14-13.23,1.56-20.13,13.13-17.81,32.78l6.26,52.99-26.89,3.18-12.32-104.22Z"/>
    <path class="cls-1" d="M257.66,254.57l27.33-3.23,17.56,148.61-27.33,3.23-17.56-148.61Z"/>
    <path class="cls-1" d="M302.6,371.95c-2.77-23.41,14.22-31.01,36.79-38.6,18.07-5.94,28.08-8.24,28.56-13.68l-.16-1.32c-.76-6.4-6.95-11.49-21.27-9.8-13.89,1.64-20.77,9.62-19.65,19.11l.16,1.32-26.89,3.18c-1.94-23.95,14.78-41.38,44.32-44.87,28.22-3.33,46.43,7.05,49.74,35.09l5.61,47.47,2.17,18.33-25.79,3.05-1.67-14.13c-5.36,11.38-16.75,19-32.19,20.82-22.26,2.63-37.58-7.87-39.72-25.98ZM371.34,348.38l-1.07-9.05c-5.76,4.26-15.47,7.2-23.61,10.18-10.02,4.1-18.01,8.4-16.88,17.89.84,7.07,6.95,11.5,16.43,10.37,13.45-1.59,26.55-9.86,25.14-29.39Z"/>
    <path class="cls-1" d="M430.83,331.72c-3.71-31.36,15.01-56.41,46.1-60.08,25.13-2.97,41.88,8.26,51.09,27.55l-24.63,10.97c-4.44-11.12-11.25-17.7-24.04-16.19-15.43,1.82-23.4,15.75-21.2,34.3l.1.88c2.17,18.33,12.3,30.34,27.95,28.49,14.77-1.75,19.42-9.68,21.21-22.88l26.46,4.48c-4.77,22.06-18.58,37.57-44.59,40.65-32.19,3.8-54.63-15.93-58.44-48.17Z"/>
    <path class="cls-1" d="M531.18,344.94c-2.77-23.41,14.22-31.01,36.79-38.6,18.07-5.94,28.08-8.24,28.56-13.68l-.16-1.32c-.76-6.4-6.95-11.49-21.27-9.8-13.89,1.64-20.77,9.62-19.65,19.11l.16,1.32-26.89,3.18c-1.94-23.95,14.78-41.38,44.32-44.87,28.22-3.33,46.43,7.05,49.74,35.09l5.61,47.47,2.17,18.33-25.79,3.05-1.67-14.13c-5.36,11.38-16.75,19-32.18,20.82-22.26,2.63-37.58-7.87-39.72-25.98ZM599.92,321.36l-1.07-9.05c-5.76,4.26-15.47,7.2-23.61,10.18-10.02,4.1-18.01,8.4-16.88,17.89.84,7.07,6.95,11.5,16.43,10.37,13.45-1.59,26.55-9.86,25.14-29.39Z"/>
    <path class="cls-1" d="M629.64,342.03l20.17-14.7c6.67,7.27,17.16,10.95,27.74,9.7,9.92-1.17,15.16-6.04,14.35-12.89-.89-7.51-12.51-7.48-28.11-8.99-18.27-1.42-37.41-6.33-39.86-27.08-2.24-18.99,14.08-35.92,37.23-38.66,20.72-2.45,37.91,4.92,49.67,17.42l-20.27,13.81c-6.53-7.96-16.09-11.31-26.45-10.08-9.48,1.12-15.38,6.07-14.62,12.47.84,7.07,6.7,7.49,25.41,8.86,19.15,1.32,40.49,5.96,43,27.16,2.32,19.65-14.01,36.59-38.47,39.48-21.16,2.5-38.54-4.63-49.78-16.51Z"/>
    <path class="cls-1" d="M716.35,323.05c-2.77-23.41,14.22-31.01,36.79-38.6,18.07-5.94,28.08-8.24,28.56-13.68l-.16-1.32c-.76-6.4-6.95-11.49-21.27-9.8-13.89,1.64-20.77,9.62-19.65,19.11l.16,1.32-26.89,3.18c-1.94-23.95,14.78-41.38,44.32-44.87s46.43,7.05,49.74,35.09l5.61,47.47,2.17,18.33-25.79,3.05-1.67-14.13c-5.36,11.38-16.75,19-32.18,20.82-22.26,2.63-37.58-7.87-39.72-25.98ZM785.09,299.48l-1.07-9.05c-5.76,4.26-15.47,7.2-23.61,10.18-10.02,4.1-18.01,8.4-16.88,17.89.84,7.07,6.95,11.5,16.43,10.37,13.45-1.59,26.55-9.86,25.14-29.39Z"/>
    <path class="cls-1" d="M821.44,306.38l30.86-3.65,3.76,31.8-30.86,3.65-3.76-31.8Z"/>
  </g>
</svg>