<?xml version="1.0" encoding="UTF-8"?>
<svg id="Capa_1" data-name="Capa 1" xmlns="http://www.w3.org/2000/svg" viewBox="0 0 1349.59 417.52">
  <defs>
    <style>
      .cls-1 {
        fill: #fff;
      }

      .cls-2 {
        fill: #2c77da;
      }
    </style>
  </defs>
  <rect class="cls-2" width="1349.59" height="416.14"/>
  <g>
    <g>
      <path class="cls-1" d="M0,0h39.78l81.21,125.14V0h33.15v183.7h-33.42L33.15,49.17v134.25H0V0Z"/>
      <path class="cls-1" d="M163.28,118.51c0-39.78,27.62-67.96,67.13-67.96s66.85,28.18,66.85,67.96-28.18,67.41-67.41,67.41-66.57-27.62-66.57-67.41ZM262.73,119.33v-1.11c0-25.14-12.16-40.05-32.32-40.05s-32.6,14.92-32.6,40.05v1.11c0,24.31,11.88,38.68,32.05,38.68s32.87-14.37,32.87-38.68Z"/>
      <path class="cls-1" d="M347,119.06c0-40.61,27.35-68.51,65.19-68.51s62.98,26.25,62.98,67.41v11.32h-94.75c2.21,19.34,14.36,29.84,33.15,29.84s27.9-9.39,32.05-20.44l29.56,10.5c-9.12,21-27.9,36.46-61.88,36.46-40.88,0-66.3-25.97-66.3-66.57ZM411.36,77.07c-16.58,0-28.73,10.77-31.49,28.73h60.77c-1.1-19.34-11.32-28.73-29.28-28.73Z"/>
      <path class="cls-1" d="M485.69,53.04h33.98v20.99c6.91-14.91,19.61-23.75,38.12-23.75,28.45,0,45.3,19.06,45.3,54.69v78.45h-33.98v-76.24c0-18.51-7.18-27.9-22.93-27.9-16.58,0-26.8,13.26-26.8,37.85v66.3h-33.7V53.04Z"/>
      <path class="cls-1" d="M624.93,148.89v-68.51h-18.78v-27.35h18.78v-24.86l32.88-18.51v43.37h25.97v27.35h-25.97v65.19c0,6.35,3.04,9.39,9.39,9.39h15.47v28.45h-26.79c-25.14-.28-30.94-12.98-30.94-34.53Z"/>
      <path class="cls-1" d="M694.82,53.04h33.98v23.48c3.59-14.92,13.26-25.14,37.29-25.14h2.77v32.87h-13.27c-20.99,0-27.07,9.39-27.07,32.32v66.85h-33.7V53.04Z"/>
      <path class="cls-1" d="M765.55,148.89c0-29.28,22.1-36.19,51.1-42.27,23.21-4.7,35.91-6.08,37.29-12.71v-1.66c0-8.01-6.9-15.2-24.86-15.2s-27.07,8.84-27.07,20.72v1.66h-33.7c1.11-29.84,24.31-48.9,61.33-48.9s56.35,15.47,56.35,50.55v82.32h-32.32v-17.68c-8.29,13.26-23.48,20.99-42.82,20.99-27.89,0-45.3-15.19-45.3-37.84ZM853.95,129.83v-11.33c-7.73,4.42-20.16,6.63-30.66,9.12-12.98,3.59-23.48,7.73-23.48,19.61,0,8.84,6.91,15.19,18.78,15.19,16.86,0,34.26-8.29,35.36-32.59Z"/>
      <path class="cls-1" d="M901.76,53.04h33.98v20.99c6.63-15.19,19.06-23.75,37.85-23.75,14.64,0,29.28,6.91,35.91,27.07,6.07-16.02,19.88-27.07,42.54-27.07,25.41,0,41.16,19.61,41.16,53.04v80.11h-33.98v-78.17c0-17.41-7.73-25.97-21.55-25.97-15.19,0-23.2,10.5-23.2,29.84v74.31h-34.26v-79.56c0-16.02-7.18-24.59-20.99-24.59-12.98,0-23.76,9.67-23.76,29.84v74.31h-33.7V53.04Z"/>
      <path class="cls-1" d="M1100.96,118.51c0-39.78,27.62-67.96,67.13-67.96s66.85,28.18,66.85,67.96-28.18,67.41-67.41,67.41-66.57-27.62-66.57-67.41ZM1200.4,119.33v-1.11c0-25.14-12.16-40.05-32.32-40.05s-32.6,14.92-32.6,40.05v1.11c0,24.31,11.88,38.68,32.05,38.68s32.87-14.37,32.87-38.68Z"/>
      <path class="cls-1" d="M1237.16,159.67l27.08-15.19c7.18,9.95,19.61,16.02,32.87,16.02,12.43,0,19.61-5.25,19.61-13.81,0-9.39-14.37-11.05-33.43-15.19-22.38-4.42-45.3-13.26-45.3-39.23,0-23.76,22.65-42.27,51.66-42.27,25.96,0,46.13,11.6,58.84,28.73l-27.08,14.09c-6.9-10.77-18.23-16.3-31.21-16.3-11.88,0-19.89,5.25-19.89,13.26,0,8.84,7.19,10.22,30.11,14.64,23.48,4.42,49.17,13.26,49.17,39.78,0,24.59-22.65,43.09-53.32,43.09-26.52,0-46.96-11.32-59.12-27.62Z"/>
    </g>
    <g>
      <path class="cls-1" d="M0,227.75h34.26v185.91H0v-185.91Z"/>
      <path class="cls-1" d="M43.39,348.74c0-39.78,27.62-67.95,67.13-67.95s66.85,28.17,66.85,67.95-28.18,67.41-67.41,67.41-66.57-27.62-66.57-67.41ZM142.83,349.57v-1.11c0-25.14-12.16-40.05-32.32-40.05s-32.6,14.91-32.6,40.05v1.11c0,24.3,11.88,38.67,32.05,38.67s32.87-14.37,32.87-38.67Z"/>
      <path class="cls-1" d="M179.58,389.9l27.08-15.19c7.18,9.95,19.61,16.02,32.87,16.02,12.43,0,19.61-5.25,19.61-13.81,0-9.4-14.37-11.05-33.43-15.2-22.38-4.41-45.3-13.26-45.3-39.23,0-23.76,22.65-42.26,51.66-42.26,25.96,0,46.13,11.6,58.84,28.73l-27.08,14.09c-6.9-10.77-18.23-16.3-31.21-16.3-11.88,0-19.89,5.25-19.89,13.27,0,8.84,7.19,10.21,30.11,14.64,23.48,4.42,49.17,13.26,49.17,39.78,0,24.58-22.65,43.09-53.32,43.09-26.52,0-46.96-11.32-59.12-27.62Z"/>
      <path class="cls-1" d="M343.97,349.01c0-41.44,25.41-68.51,58.28-68.51,16.86,0,30.66,7.73,39.78,19.61v-72.37h33.15v185.91h-33.15v-16.85c-9.12,12.15-22.93,19.61-40.06,19.61-32.59,0-58.01-25.14-58.01-67.41ZM443.7,349.01v-2.21c0-23.48-11.88-38.39-32.05-38.39-18.78,0-32.04,13.81-32.04,39.77v1.93c0,25.69,12.7,38.4,32.04,38.4s32.05-16.02,32.05-39.5Z"/>
      <path class="cls-1" d="M483.77,348.74c0-39.78,27.62-67.95,67.13-67.95s66.85,28.17,66.85,67.95-28.18,67.41-67.41,67.41-66.57-27.62-66.57-67.41ZM583.21,349.57v-1.11c0-25.14-12.16-40.05-32.32-40.05s-32.6,14.91-32.6,40.05v1.11c0,24.3,11.88,38.67,32.05,38.67s32.87-14.37,32.87-38.67Z"/>
      <path class="cls-1" d="M619.97,389.9l27.08-15.19c7.18,9.95,19.61,16.02,32.87,16.02,12.43,0,19.61-5.25,19.61-13.81,0-9.4-14.37-11.05-33.43-15.2-22.38-4.41-45.3-13.26-45.3-39.23,0-23.76,22.65-42.26,51.66-42.26,25.96,0,46.13,11.6,58.84,28.73l-27.08,14.09c-6.9-10.77-18.23-16.3-31.21-16.3-11.88,0-19.89,5.25-19.89,13.27,0,8.84,7.19,10.21,30.11,14.64,23.48,4.42,49.17,13.26,49.17,39.78,0,24.58-22.65,43.09-53.32,43.09-26.52,0-46.96-11.32-59.12-27.62Z"/>
      <path class="cls-1" d="M742.91,373.87h38.67v39.78h-38.67v-39.78Z"/>
    </g>
  </g>
</svg>