<?xml version="1.0" encoding="UTF-8"?>
<svg id="Capa_1" data-name="Capa 1" xmlns="http://www.w3.org/2000/svg" viewBox="0 0 1080.13 642.34">
  <defs>
    <style>
      .cls-1 {
        fill: #5b3a24;
      }

      .cls-2 {
        fill: #fff;
      }

      .cls-3 {
        fill: none;
        stroke: #fff;
        stroke-miterlimit: 10;
      }
    </style>
  </defs>
  <path class="cls-2" d="M486.25,627.9c-141.64-24.85-269.68-79.06-360.54-152.64C31.71,399.13-11.93,310.94,2.81,226.91,17.55,142.88,88.61,74.81,202.91,35.23,313.39-3.02,452.24-10.4,593.88,14.45c141.64,24.85,269.68,79.06,360.54,152.64,93.99,76.12,137.64,164.31,122.9,248.34-14.74,84.03-85.81,152.1-200.1,191.67-110.49,38.26-249.34,45.64-390.97,20.79Z"/>
  <ellipse class="cls-1" cx="540.06" cy="321.17" rx="292.44" ry="526.5" transform="translate(130.39 797.61) rotate(-80.05)"/>
  <ellipse class="cls-3" cx="540.06" cy="321.17" rx="280.24" ry="504.53" transform="translate(130.39 797.61) rotate(-80.05)"/>
  <path class="cls-2" d="M157.35,173.33c8.6-48.99,42.05-72.83,88.22-64.73,39.45,6.92,57.18,31.93,55.74,65.64l-41.19-7.23c.45-14-6.79-22.42-20.45-24.81-19.51-3.42-32.36,9.96-37.42,38.79l-.49,2.82c-4.6,26.23,4.45,42.12,23.96,45.54,13.87,2.43,26-3.03,29.48-16.5l-23.63-4.15,4.79-27.31,63.08,11.07-13.12,74.78-38.8-6.81,3.04-17.34c-8.85,10.96-23.12,17.17-42.85,13.71-38.37-6.73-57.98-40.11-50.37-83.46Z"/>
  <path class="cls-2" d="M320.79,124.93l62.43,10.95c48.34,8.48,57.62,26.87,53.74,48.98-3.73,21.24-20.49,31.48-43.11,31.76,24.68,8.35,30.63,26.6,29.8,56.84-.16,6-1.09,13.88-1.31,17.64l-44.65-7.83c.15-.86.66-5.02.91-9,2.07-25.78-1.61-44.3-20.83-48.12l-9.54-1.67-9.13,52.02-43.57-7.64,25.25-143.92ZM361.08,203.5c18.21,3.19,30.03-4.34,32.43-17.99,2.24-12.79-3.48-20.94-21.68-24.14l-7.02-1.23c-2.83-.5-5.52,1.39-6.01,4.22l-5.7,32.47c-.5,2.83,1.39,5.52,4.22,6.01l3.77.66Z"/>
  <path class="cls-2" d="M492.24,155.01l48.55,8.52,23.74,152.52-46.82-8.21-4.8-35.03-43.78-7.68-16.87,31.23-35.77-6.28,75.76-135.06ZM510.75,245.62l-4.35-33.12c-.6-4.53-6.63-5.69-8.85-1.69l-16.49,29.6,29.7,5.21Z"/>
  <path class="cls-2" d="M586.31,171.51l48.77,8.56,27.58,65.48c2.97,7.05,13.3,5.88,14.62-1.65l9.6-54.74,34.68,6.08-25.25,143.92-42.27-7.42-32.14-77.57c-2.94-7.09-13.31-5.95-14.64,1.61l-11.53,65.73-34.68-6.08,25.25-143.92Z"/>
  <path class="cls-2" d="M557.83,333.82l48.77,8.56,27.58,65.48c2.97,7.05,13.3,5.88,14.62-1.65l9.6-54.74,34.68,6.08-25.25,143.92-42.27-7.42-32.14-77.57c-2.94-7.09-13.31-5.95-14.64,1.61l-11.53,65.73-34.68-6.08,25.25-143.92Z"/>
  <path class="cls-2" d="M463.75,317.42l48.55,8.52,23.74,152.52-46.82-8.21-4.8-35.03-43.78-7.68-16.87,31.23-35.77-6.28,75.76-135.06ZM482.26,408.03l-4.35-33.12c-.6-4.53-6.63-5.69-8.85-1.69l-16.49,29.6,29.7,5.21Z"/>
  <path class="cls-2" d="M292.2,287.32l69.64,12.22c43.35,7.61,72.4,33.04,63.16,85.71-8.94,50.94-46.58,65.56-90.58,57.84l-67.47-11.84,25.25-143.92ZM379.23,377.44l.15-.86c5.48-31.21-2.12-43.94-25.96-48.13l-15.39-2.7c-3.62-.64-7.07,1.78-7.7,5.4l-12.65,72.08c-.64,3.62,1.78,7.07,5.4,7.7l14.74,2.59c24.28,4.26,36.01-5.3,41.41-36.08Z"/>
  <g>
    <path class="cls-2" d="M702.29,359.27l112.71,19.78-5.4,30.78-63.05-11.06c-3.37-.59-6.58,1.66-7.17,5.03l-2.2,12.52c-.59,3.37,1.66,6.58,5.03,7.17l35.09,6.16-5.48,31.21-35.09-6.16c-3.37-.59-6.58,1.66-7.17,5.03l-2.39,13.6c-.59,3.37,1.66,6.58,5.03,7.17l64.78,11.37-5.51,31.43-114.45-20.08,25.25-143.92ZM767.55,327.38l45.74,8.02-.76,4.34-52.35,20.75-10.62-1.86,18-31.25Z"/>
    <path class="cls-2" d="M788.94,474.13l36.2,6.35c.35,14.58,7.69,23.69,26.54,27,11.27,1.98,18.9-2.04,20.35-10.28,1.48-8.45-11.68-13.67-27.9-20.53-22.03-9.45-48.47-23.03-43.29-52.51,5.1-29.05,34.21-44.71,70.41-38.36,39.23,6.88,56.11,30.4,53.11,60.26l-35.77-6.28c.09-14.51-5.41-22.62-22.54-25.63-10.84-1.9-18.29,2.38-19.7,10.4-1.75,9.97,13.22,15.06,30.09,22.04,21.88,8.98,46.49,21.56,41.24,51.47-5.25,29.91-32.18,44.63-70.55,37.9-42.05-7.38-60.13-34.23-58.19-61.82Z"/>
  </g>
  <g>
    <path class="cls-2" d="M190.46,326.48l4.76.84-4.12,10.53c-3.08,1.65-6.93,2.21-10.68,1.56-8.13-1.43-12.33-6.99-11.13-13.88,1.61-9.17,9.48-15.13,19.69-13.34,4.95.87,8.35,3.1,10.09,6.36l-4.17,2.38c-1.4-2.48-3.64-3.79-6.93-4.37-7.04-1.24-12.42,3.05-13.56,9.55-.78,4.45,1.63,7.98,7.36,8.99,1.9.33,3.71.21,5.49-.35l3.2-8.25Z"/>
    <path class="cls-2" d="M206.79,315.7l10.95,1.92c8.24,1.45,12.39,6.68,11.19,13.49-1.68,9.6-9.56,14.72-19.66,12.94l-12.65-2.22,10.17-26.14ZM210.18,339.83c7.27,1.28,12.5-2.79,13.64-9.29.78-4.45-1.63-7.74-7.36-8.75l-6.23-1.09-6.97,17.92,6.93,1.22Z"/>
    <path class="cls-2" d="M226.79,344.3c.35-2.01,2.11-3.14,3.96-2.81,1.7.3,2.76,1.76,2.45,3.54-.36,2.05-2.18,3.13-3.93,2.82-1.7-.3-2.79-1.81-2.49-3.55Z"/>
    <path class="cls-2" d="M155.64,363.96l12.46,2.19-1.64,4.1-19.93-3.5,1.25-3.25,14.54-7.86c3.83-2.08,5.13-3.53,5.47-5.5.37-2.09-.9-3.71-4.04-4.26-2.4-.42-4.9.22-6.93,1.78l-2.93-3.31c2.72-2.32,6.9-3.42,11.31-2.64,5.65.99,8.54,4.53,7.82,8.63-.56,3.17-2.42,5.64-7.79,8.49l-9.6,5.14Z"/>
    <path class="cls-2" d="M173.31,361.44c1.68-9.6,8.61-16.8,17.01-15.32,5.84,1.03,8.78,5.41,7.67,11.76-1.68,9.6-8.61,16.8-16.97,15.33-5.88-1.03-8.82-5.42-7.71-11.76ZM192.9,357.1c.69-3.91-.79-6.16-3.77-6.69-5.46-.96-9.77,6.1-10.76,11.79-.69,3.91.79,6.16,3.85,6.7,5.42.95,9.69-6.12,10.69-11.81Z"/>
    <path class="cls-2" d="M203.86,372.42l12.46,2.19-1.64,4.1-19.93-3.5,1.25-3.25,14.54-7.86c3.83-2.08,5.13-3.53,5.47-5.5.37-2.09-.9-3.71-4.04-4.26-2.4-.42-4.9.22-6.93,1.78l-2.93-3.31c2.72-2.32,6.9-3.42,11.31-2.64,5.65.99,8.54,4.53,7.82,8.63-.56,3.17-2.42,5.64-7.79,8.49l-9.6,5.14Z"/>
    <path class="cls-2" d="M242.45,374.41c-1,5.69-6.08,8.51-12,7.47-6.23-1.09-9.97-5.7-8.68-13.01,1.32-7.55,7.42-15.93,18.68-13.95,2.79.49,5.35,1.54,6.86,2.96l-2.96,3.43c-1.26-1.22-2.98-1.88-4.95-2.22-6.11-1.07-10.01,2.71-11.6,7.22,2.09-1.43,4.57-1.71,7.24-1.24,4.68.82,8.3,4.33,7.41,9.36ZM237.39,373.88c.47-2.67-1.31-4.58-4.33-5.11-3.44-.6-6.04,1.01-6.53,3.8-.4,2.28,1.08,4.74,4.49,5.33,3.17.56,5.82-.89,6.37-4.03Z"/>
  </g>
  <g>
    <path class="cls-2" d="M770.63,235.08l10.95,1.92c8.24,1.45,12.39,6.68,11.19,13.49-1.68,9.6-9.56,14.72-19.66,12.94l-12.65-2.22,10.17-26.14ZM774.02,259.2c7.28,1.28,12.5-2.79,13.64-9.29.78-4.45-1.63-7.74-7.36-8.75l-6.23-1.09-6.97,17.92,6.93,1.22Z"/>
    <path class="cls-2" d="M806,245.63l-2.63,6.8,13.12,2.3-1.54,4-13.16-2.31-2.78,7.21,15.32,2.69-1.59,4.07-20.31-3.56,10.17-26.14,19.77,3.47-1.59,4.07-14.78-2.59Z"/>
    <path class="cls-2" d="M817.23,268.3l2.82-3.57c1.92,2.21,5.02,3.91,8.31,4.49,3.95.69,6.75-.29,7.17-2.69.88-5.03-13.24-4.8-11.71-13.5.94-5.34,6.33-7.9,13.34-6.68,3.48.61,6.63,2,8.65,3.87l-2.67,3.64c-1.78-1.71-4.28-2.9-6.99-3.38-4.1-.72-6.83.52-7.25,2.88-.89,5.07,13.2,4.99,11.75,13.27-.94,5.38-6.38,7.94-13.5,6.69-4.26-.75-8.12-2.82-9.93-5.01Z"/>
    <path class="cls-2" d="M852.87,249.51l5.03.88-10.17,26.14-5.03-.88,10.17-26.14Z"/>
    <path class="cls-2" d="M878.77,267.69l4.76.83-4.12,10.53c-3.08,1.65-6.93,2.21-10.68,1.56-8.13-1.43-12.33-6.99-11.13-13.88,1.61-9.17,9.47-15.13,19.69-13.34,4.95.87,8.35,3.1,10.09,6.36l-4.17,2.38c-1.4-2.48-3.64-3.79-6.93-4.37-7.04-1.24-12.42,3.05-13.56,9.55-.78,4.45,1.63,7.98,7.36,8.99,1.89.33,3.71.21,5.49-.35l3.2-8.25Z"/>
    <path class="cls-2" d="M919.13,261.13l-10.17,26.14-4.14-.73-7.78-20.91-7.12,18.3-4.99-.88,10.17-26.14,4.14.73,7.82,20.92,7.08-18.3,4.99.88Z"/>
    <path class="cls-2" d="M754.4,290.98l2.82-3.57c1.92,2.21,5.02,3.91,8.31,4.49,3.95.69,6.75-.29,7.17-2.69.88-5.03-13.24-4.8-11.71-13.5.94-5.34,6.33-7.9,13.34-6.68,3.48.61,6.63,2,8.65,3.87l-2.67,3.64c-1.78-1.71-4.28-2.9-6.99-3.38-4.1-.72-6.83.52-7.25,2.88-.89,5.07,13.2,4.99,11.75,13.27-.94,5.38-6.38,7.94-13.5,6.69-4.26-.75-8.12-2.82-9.93-5.01Z"/>
    <path class="cls-2" d="M793.56,277.19l-8.98-1.57,1.6-4.11,22.98,4.03-1.63,4.1-8.98-1.58-8.53,22.04-5.03-.88,8.57-22.03Z"/>
    <path class="cls-2" d="M805.67,293.67c.16-.93.45-1.88.82-2.85l5.74-14.75,5.03.88-5.73,14.67c-.31.86-.57,1.66-.69,2.35-.64,3.68,1.21,5.84,5.04,6.51,4.3.75,7.3-1.15,9.39-6.49l5.68-14.64,4.95.87-5.82,14.97c-2.99,7.69-8.21,10.88-15.49,9.61-6.66-1.17-9.94-5.41-8.94-11.14Z"/>
    <path class="cls-2" d="M843,281.47l10.95,1.92c8.24,1.45,12.39,6.68,11.19,13.49-1.68,9.6-9.56,14.72-19.66,12.94l-12.65-2.22,10.17-26.14ZM846.38,305.6c7.28,1.28,12.5-2.79,13.64-9.29.78-4.45-1.63-7.74-7.36-8.75l-6.23-1.09-6.97,17.92,6.93,1.22Z"/>
    <path class="cls-2" d="M874.97,287.08l5.03.88-10.17,26.14-5.03-.88,10.17-26.14Z"/>
    <path class="cls-2" d="M879.68,304.3c1.61-9.17,9.48-15.13,19.46-13.38,8.16,1.43,12.14,7,10.93,13.85-1.61,9.17-9.48,15.13-19.46,13.38-8.16-1.43-12.14-7-10.93-13.85ZM904.95,304.19c.78-4.45-1.63-7.98-7.05-8.93-6.81-1.19-11.99,3.36-13.09,9.63-.78,4.45,1.59,7.98,7.01,8.93,6.81,1.19,12.03-3.35,13.13-9.62Z"/>
  </g>
</svg>