<?xml version="1.0" encoding="UTF-8"?>
<svg id="Capa_1" data-name="Capa 1" xmlns="http://www.w3.org/2000/svg" viewBox="0 0 1393.46 519.78">
  <defs>
    <style>
      .cls-1 {
        fill: #fff;
      }

      .cls-2 {
        fill: #2c77da;
      }
    </style>
  </defs>
  <rect class="cls-2" x="13.96" y="51.82" width="1365.54" height="416.14" transform="translate(-17.9 54.27) rotate(-4.4)"/>
  <g>
    <g>
      <path class="cls-1" d="M15.9,103.64l39.66-3.06,90.58,118.53-9.61-124.77,33.05-2.55,14.11,183.16-33.32,2.57-97.65-127.41,10.31,133.86-33.05,2.55L15.9,103.64Z"/>
      <path class="cls-1" d="M187.8,209.26c-3.05-39.66,22.32-69.88,61.71-72.91,39.11-3.01,68.82,22.96,71.87,62.62,3.01,39.11-22.92,69.37-62.03,72.38-39.11,3.01-68.5-22.43-71.55-62.09ZM287.01,202.45l-.08-1.1c-1.93-25.06-15.2-39-35.3-37.45s-31.36,17.38-29.43,42.44l.08,1.1c1.87,24.24,14.81,37.65,34.92,36.1,20.38-1.57,31.67-16.85,29.8-41.09Z"/>
      <path class="cls-1" d="M371.02,195.71c-3.12-40.49,22.01-70.41,59.74-73.32,39.38-3.03,64.81,21.33,67.97,62.37l.87,11.29-94.47,7.28c3.69,19.11,16.61,28.64,35.34,27.2,19.28-1.48,27.1-11.51,30.38-22.84l30.28,8.2c-7.48,21.63-25.02,38.5-58.9,41.11-40.76,3.14-68.09-20.8-71.21-61.29ZM431.97,148.9c-16.53,1.27-27.81,12.95-29.19,31.06l60.59-4.67c-2.58-19.19-13.5-27.78-31.4-26.4Z"/>
      <path class="cls-1" d="M504.22,119.23l33.88-2.61,1.61,20.93c5.74-15.4,17.73-25.19,36.19-26.61,28.37-2.18,46.63,15.52,49.37,51.05l6.02,78.22-33.88,2.61-5.86-76.02c-1.42-18.46-9.3-27.27-25-26.06-16.53,1.27-25.7,15.28-23.81,39.79l5.09,66.1-33.6,2.59-10.01-130Z"/>
      <path class="cls-1" d="M650.41,204.11l-5.26-68.3-18.73,1.44-2.1-27.27,18.73-1.44-1.91-24.79,31.36-20.98,3.33,43.24,25.89-1.99,2.1,27.27-25.89,1.99,5.01,65c.49,6.33,3.75,9.13,10.08,8.64l15.42-1.19,2.19,28.37-26.71,2.06c-25.08,1.65-31.85-10.57-33.51-32.05Z"/>
      <path class="cls-1" d="M712.74,103.17l33.88-2.61,1.8,23.41c2.43-15.15,11.29-26.08,35.25-27.93l2.76-.21,2.52,32.78-13.23,1.02c-20.93,1.61-26.27,11.44-24.51,34.3l5.13,66.65-33.6,2.59-10.01-130Z"/>
      <path class="cls-1" d="M790.62,193.31c-2.25-29.19,19.26-37.78,47.71-46.06,22.78-6.46,35.34-8.82,36.21-15.53l-.13-1.65c-.62-7.99-8.05-14.62-25.95-13.24s-26.31,10.89-25.4,22.74l.13,1.66-33.6,2.59c-1.19-29.83,20.49-50.62,57.39-53.46,35.25-2.72,57.37,11.1,60.07,46.08l4.56,59.21,1.76,22.86-32.22,2.48-1.36-17.63c-7.25,13.86-21.8,22.73-41.08,24.22-27.81,2.14-46.34-11.67-48.08-34.25ZM877.3,167.51l-.87-11.29c-7.37,5-19.59,8.16-29.87,11.44-12.67,4.58-22.82,9.51-21.9,21.36.68,8.81,8.06,14.62,19.89,13.7,16.81-1.29,33.52-10.89,32.75-35.21Z"/>
      <path class="cls-1" d="M919.07,87.27l33.88-2.61,1.61,20.93c5.45-15.66,17.18-25.15,35.91-26.59,14.59-1.12,29.72,4.64,37.89,24.23,4.82-16.44,17.75-28.52,40.33-30.26,25.34-1.95,42.54,16.39,45.11,49.72l6.15,79.87-33.88,2.61-6-77.94c-1.34-17.35-9.71-25.3-23.48-24.24-15.15,1.17-22.33,12.25-20.84,31.53l5.71,74.09-34.16,2.63-6.11-79.32c-1.23-15.98-9.05-23.96-22.82-22.9-12.94,1-22.94,11.46-21.4,31.57l5.71,74.09-33.6,2.59-10.01-130Z"/>
      <path class="cls-1" d="M1122.71,137.25c-3.05-39.66,22.32-69.88,61.71-72.91,39.11-3.01,68.82,22.96,71.87,62.62,3.01,39.11-22.92,69.37-62.03,72.38s-68.5-22.43-71.55-62.09ZM1221.92,130.44l-.08-1.1c-1.93-25.06-15.2-39-35.3-37.45s-31.36,17.38-29.43,42.44l.08,1.1c1.87,24.24,14.81,37.65,34.92,36.1s31.67-16.85,29.8-41.09Z"/>
      <path class="cls-1" d="M1261.66,167.83l25.83-17.23c7.92,9.36,20.79,14.47,34,13.45,12.39-.95,19.15-6.74,18.49-15.28-.72-9.36-15.17-9.91-34.49-12.58-22.65-2.69-46.19-9.74-48.18-35.63-1.82-23.69,19.34-43.88,48.26-46.11,25.88-1.99,46.88,8.02,60.87,24.13l-25.92,16.12c-7.71-10.21-19.42-14.85-32.37-13.85-11.84.91-19.43,6.76-18.81,14.75.68,8.81,7.95,9.64,31.15,12.28,23.75,2.61,50.04,9.45,52.08,35.89,1.89,24.51-19.27,44.71-49.85,47.06-26.44,2.04-47.69-7.68-61.06-23Z"/>
    </g>
    <g>
      <path class="cls-1" d="M33.39,330.72l34.16-2.63,14.28,185.36-34.16,2.63-14.28-185.36Z"/>
      <path class="cls-1" d="M85.94,448.02c-3.06-39.66,22.32-69.87,61.71-72.91,39.11-3.01,68.82,22.95,71.87,62.62s-22.92,69.37-62.03,72.38c-39.11,3.01-68.5-22.43-71.55-62.09ZM185.15,441.21l-.09-1.11c-1.93-25.06-15.2-39-35.3-37.45s-31.36,17.37-29.43,42.44l.09,1.11c1.87,24.23,14.81,37.65,34.92,36.1s31.67-16.85,29.8-41.08Z"/>
      <path class="cls-1" d="M224.89,478.6l25.83-17.23c7.92,9.36,20.79,14.47,34,13.45,12.39-.95,19.15-6.74,18.49-15.28-.72-9.37-15.17-9.92-34.49-12.59-22.65-2.68-46.19-9.74-48.18-35.63-1.82-23.69,19.34-43.88,48.26-46.1,25.88-1.99,46.88,8.02,60.87,24.12l-25.92,16.13c-7.71-10.21-19.42-14.85-32.37-13.86-11.84.91-19.43,6.77-18.81,14.75.68,8.81,7.95,9.63,31.15,12.28,23.75,2.61,50.04,9.44,52.08,35.89,1.89,24.51-19.27,44.71-49.85,47.06-26.44,2.04-47.69-7.68-61.06-23Z"/>
      <path class="cls-1" d="M385.66,425.21c-3.18-41.31,20.08-70.26,52.85-72.78,16.81-1.29,31.16,5.36,41.17,16.5l-5.56-72.16,33.05-2.55,14.28,185.36-33.05,2.55-1.29-16.8c-8.16,12.81-21.35,21.32-38.43,22.63-32.5,2.5-59.77-20.61-63.01-62.75ZM485.09,417.55l-.17-2.2c-1.8-23.41-14.79-37.37-34.9-35.82-18.73,1.44-30.88,16.23-28.89,42.12l.15,1.93c1.97,25.62,15.61,37.31,34.89,35.83,19.56-1.51,30.72-18.44,28.92-41.85Z"/>
      <path class="cls-1" d="M525.02,414.2c-3.06-39.66,22.32-69.87,61.71-72.91,39.11-3.01,68.82,22.95,71.87,62.62,3.01,39.11-22.92,69.37-62.03,72.38-39.11,3.01-68.5-22.43-71.55-62.09ZM624.23,407.39l-.09-1.11c-1.93-25.06-15.2-39-35.3-37.45s-31.36,17.37-29.43,42.44l.09,1.11c1.87,24.23,14.81,37.65,34.92,36.1s31.67-16.85,29.8-41.08Z"/>
      <path class="cls-1" d="M663.98,444.78l25.83-17.23c7.92,9.36,20.79,14.47,34,13.45,12.39-.95,19.15-6.74,18.49-15.28-.72-9.37-15.17-9.92-34.49-12.59-22.65-2.68-46.19-9.74-48.18-35.63-1.82-23.69,19.34-43.88,48.26-46.1,25.88-1.99,46.88,8.02,60.87,24.12l-25.92,16.13c-7.71-10.21-19.42-14.85-32.37-13.86-11.84.91-19.43,6.77-18.81,14.75.68,8.81,7.95,9.63,31.15,12.28,23.75,2.61,50.04,9.44,52.08,35.89,1.89,24.51-19.27,44.71-49.85,47.06-26.44,2.04-47.69-7.68-61.06-23Z"/>
      <path class="cls-1" d="M785.33,419.36l38.56-2.97,3.06,39.66-38.56,2.97-3.06-39.66Z"/>
    </g>
  </g>
</svg>